# xmcd
#
# Track frame offsets:
#	150
#	19044
#	37801
#	60447
#	73158
#	96954
#	125046
#	152155
#	162929
#	187719
#	202080
#	221128
#	237331
#	258746
#
# Disc length: 4102 seconds
#
# Revision: 1
# Processed by: cddbd v1.5.2PL0 Copyright (c) Steve Scherf et al.
# Submitted via: audiograbber 1.83.01
#
DISCID=c810040e
DTITLE=Wasserman, Rob - Trios
DYEAR=2004
DGENRE=Jazz
TTITLE0=Fantasy Is Reality and Bells of Madness (w Brian Wilson and Carnie Wilson
TTITLE0=)
TTITLE1=Put Your Big Toe in the Milk of Human Kindness (w Elvis Costello and Ma
TTITLE1=rc Ribot)
TTITLE2=White-Wheeled Limousine (w Bruce Hornsby and Branford Marsalis)
TTITLE3=Country (Bass Trilogy: Part 1)
TTITLE4=Zillionaire (w Edie Brickell and Jerry Garcia)
TTITLE5=Dustin' Off the Bass (w Willie Dixon and Al Duncan)
TTITLE6=Easy Answers (w Bob Weir and Neil Young)
TTITLE7=Satisfaction, (I Can't Get No) (Bass Trilogy: Part 2)
TTITLE8=Home Is Where You Get Across (w Chris Whitley and Les Claypool)
TTITLE9=Spike's Bulls (Bass Trilogy: Part 3)
TTITLE10=Gypsy One
TTITLE11=Gypsy Two (w Matt Haimovitz and Joan Jeanrenaud)
TTITLE12=American Popsicle (w Edie Brickell and Jerry Garcia)
TTITLE13=Three Guys Named Schmo (w Les Claypool and Jay Lane)
EXTD=YEAR: 0
EXTT0=
EXTT1=
EXTT2=
EXTT3=
EXTT4=
EXTT5=
EXTT6=
EXTT7=
EXTT8=
EXTT9=
EXTT10=
EXTT11=
EXTT12=
EXTT13=
PLAYORDER=
